<svg width="24" height="24" viewBox="0 0 24 24" fill="none" xmlns="http://www.w3.org/2000/svg">
<path d="M20.6372 0H2.79465C1.25121 0 0 1.2533 0 2.79933V20.6717C0 22.2178 1.25121 23.4711 2.79465 23.4711H20.6372C22.1806 23.4711 23.4318 22.2178 23.4318 20.6717V2.79933C23.4318 1.2533 22.1806 0 20.6372 0Z" fill="#FFC107"/>
<path d="M15.0208 15.0916H11.9019C11.8441 15.0893 11.7865 15.0997 11.7331 15.1222C11.6798 15.1446 11.632 15.1786 11.5931 15.2215C10.886 15.933 10.185 16.6537 9.45931 17.3465C8.8616 17.9402 8.07221 18.301 7.23285 18.3642C6.54423 18.4137 5.84942 18.392 5.1608 18.3951C5.12992 18.3951 5.08977 18.3426 5.06816 18.3085C5.06192 18.2769 5.06192 18.2443 5.06816 18.2126V15.237C5.06816 15.039 5.06816 15.039 5.26579 15.039H11.5252C11.583 15.0411 11.6406 15.0306 11.6939 15.0082C11.7472 14.9857 11.795 14.9519 11.834 14.9091C12.4917 14.2441 13.1557 13.5821 13.8165 12.9202C14.4709 12.2664 15.328 11.8551 16.2468 11.7541C16.3703 11.7541 16.4938 11.7324 16.6173 11.7324C17.1423 11.7324 17.6703 11.7324 18.1984 11.7324C18.325 11.7324 18.3775 11.7695 18.3775 11.9056C18.3775 12.9181 18.3775 13.9317 18.3775 14.9462C18.3775 15.07 18.3373 15.1133 18.2107 15.1102L15.0208 15.0916Z" fill="white"/>
<path d="M15.0204 8.45376C13.9766 8.45376 12.9329 8.45376 11.8891 8.45376C11.8347 8.45215 11.7805 8.46237 11.7304 8.48373C11.6803 8.50509 11.6354 8.53708 11.5988 8.57749C10.8886 9.29202 10.1845 10.0158 9.45576 10.7118C8.85681 11.3036 8.06812 11.6641 7.22931 11.7294C6.54377 11.7789 5.85514 11.7542 5.1696 11.7635C5.0924 11.7635 5.06152 11.7325 5.06152 11.6583V8.59914C5.06152 8.40427 5.06152 8.40427 5.25916 8.40427C7.34665 8.40427 9.43415 8.40427 11.5247 8.40427C11.5828 8.40641 11.6407 8.39559 11.6941 8.37259C11.7475 8.34958 11.7951 8.31498 11.8335 8.27127C12.482 7.61551 13.1367 6.96904 13.7852 6.31328C14.3859 5.69342 15.1677 5.28074 16.0178 5.13478C16.2157 5.10062 16.416 5.08201 16.6169 5.0791C17.1387 5.0791 17.6606 5.0791 18.1825 5.0791C18.3616 5.0791 18.3739 5.0791 18.3739 5.26469C18.3739 6.26688 18.3739 7.27217 18.3739 8.27745C18.3739 8.41664 18.3307 8.45686 18.1917 8.45686C17.1356 8.45067 16.0795 8.45376 15.0204 8.45376Z" fill="white"/>
</svg>
