<svg width="296" height="80" viewBox="0 0 296 80" fill="none" xmlns="http://www.w3.org/2000/svg">
<g clip-path="url(#clip0_784_5577)">
<mask id="mask0_784_5577" style="mask-type:alpha" maskUnits="userSpaceOnUse" x="10" y="4" width="24" height="24">
<rect x="10" y="4" width="24" height="24" fill="#D9D9D9"/>
</mask>
<g mask="url(#mask0_784_5577)">
<path d="M15.5 26C14.5333 26 13.7083 25.6583 13.025 24.975C12.3417 24.2917 12 23.4667 12 22.5C12 21.5333 12.3417 20.7083 13.025 20.025C13.7083 19.3417 14.5333 19 15.5 19C15.8 19 16.0917 19.0375 16.375 19.1125C16.6583 19.1875 16.925 19.2917 17.175 19.425L21 15.6V12.85C20.2667 12.6333 19.6667 12.2208 19.2 11.6125C18.7333 11.0042 18.5 10.3 18.5 9.5C18.5 8.53333 18.8417 7.70833 19.525 7.025C20.2083 6.34167 21.0333 6 22 6C22.9667 6 23.7917 6.34167 24.475 7.025C25.1583 7.70833 25.5 8.53333 25.5 9.5C25.5 10.3 25.2667 11.0042 24.8 11.6125C24.3333 12.2208 23.7333 12.6333 23 12.85V15.6L26.85 19.425C27.1 19.2917 27.3625 19.1875 27.6375 19.1125C27.9125 19.0375 28.2 19 28.5 19C29.4667 19 30.2917 19.3417 30.975 20.025C31.6583 20.7083 32 21.5333 32 22.5C32 23.4667 31.6583 24.2917 30.975 24.975C30.2917 25.6583 29.4667 26 28.5 26C27.5333 26 26.7083 25.6583 26.025 24.975C25.3417 24.2917 25 23.4667 25 22.5C25 22.2 25.0375 21.9083 25.1125 21.625C25.1875 21.3417 25.2917 21.075 25.425 20.825L22 17.4L18.575 20.825C18.7083 21.075 18.8125 21.3417 18.8875 21.625C18.9625 21.9083 19 22.2 19 22.5C19 23.4667 18.6583 24.2917 17.975 24.975C17.2917 25.6583 16.4667 26 15.5 26ZM28.5 24C28.9167 24 29.2708 23.8542 29.5625 23.5625C29.8542 23.2708 30 22.9167 30 22.5C30 22.0833 29.8542 21.7292 29.5625 21.4375C29.2708 21.1458 28.9167 21 28.5 21C28.0833 21 27.7292 21.1458 27.4375 21.4375C27.1458 21.7292 27 22.0833 27 22.5C27 22.9167 27.1458 23.2708 27.4375 23.5625C27.7292 23.8542 28.0833 24 28.5 24ZM22 11C22.4167 11 22.7708 10.8542 23.0625 10.5625C23.3542 10.2708 23.5 9.91667 23.5 9.5C23.5 9.08333 23.3542 8.72917 23.0625 8.4375C22.7708 8.14583 22.4167 8 22 8C21.5833 8 21.2292 8.14583 20.9375 8.4375C20.6458 8.72917 20.5 9.08333 20.5 9.5C20.5 9.91667 20.6458 10.2708 20.9375 10.5625C21.2292 10.8542 21.5833 11 22 11ZM15.5 24C15.9167 24 16.2708 23.8542 16.5625 23.5625C16.8542 23.2708 17 22.9167 17 22.5C17 22.0833 16.8542 21.7292 16.5625 21.4375C16.2708 21.1458 15.9167 21 15.5 21C15.0833 21 14.7292 21.1458 14.4375 21.4375C14.1458 21.7292 14 22.0833 14 22.5C14 22.9167 14.1458 23.2708 14.4375 23.5625C14.7292 23.8542 15.0833 24 15.5 24Z" fill="#13171B" fill-opacity="0.1"/>
</g>
<mask id="mask1_784_5577" style="mask-type:alpha" maskUnits="userSpaceOnUse" x="10" y="76" width="24" height="24">
<rect x="10" y="76" width="24" height="24" fill="#D9D9D9"/>
</mask>
<g mask="url(#mask1_784_5577)">
<path d="M15.5 98C14.5333 98 13.7083 97.6583 13.025 96.975C12.3417 96.2917 12 95.4667 12 94.5C12 93.5333 12.3417 92.7083 13.025 92.025C13.7083 91.3417 14.5333 91 15.5 91C15.8 91 16.0917 91.0375 16.375 91.1125C16.6583 91.1875 16.925 91.2917 17.175 91.425L21 87.6V84.85C20.2667 84.6333 19.6667 84.2208 19.2 83.6125C18.7333 83.0042 18.5 82.3 18.5 81.5C18.5 80.5333 18.8417 79.7083 19.525 79.025C20.2083 78.3417 21.0333 78 22 78C22.9667 78 23.7917 78.3417 24.475 79.025C25.1583 79.7083 25.5 80.5333 25.5 81.5C25.5 82.3 25.2667 83.0042 24.8 83.6125C24.3333 84.2208 23.7333 84.6333 23 84.85V87.6L26.85 91.425C27.1 91.2917 27.3625 91.1875 27.6375 91.1125C27.9125 91.0375 28.2 91 28.5 91C29.4667 91 30.2917 91.3417 30.975 92.025C31.6583 92.7083 32 93.5333 32 94.5C32 95.4667 31.6583 96.2917 30.975 96.975C30.2917 97.6583 29.4667 98 28.5 98C27.5333 98 26.7083 97.6583 26.025 96.975C25.3417 96.2917 25 95.4667 25 94.5C25 94.2 25.0375 93.9083 25.1125 93.625C25.1875 93.3417 25.2917 93.075 25.425 92.825L22 89.4L18.575 92.825C18.7083 93.075 18.8125 93.3417 18.8875 93.625C18.9625 93.9083 19 94.2 19 94.5C19 95.4667 18.6583 96.2917 17.975 96.975C17.2917 97.6583 16.4667 98 15.5 98ZM28.5 96C28.9167 96 29.2708 95.8542 29.5625 95.5625C29.8542 95.2708 30 94.9167 30 94.5C30 94.0833 29.8542 93.7292 29.5625 93.4375C29.2708 93.1458 28.9167 93 28.5 93C28.0833 93 27.7292 93.1458 27.4375 93.4375C27.1458 93.7292 27 94.0833 27 94.5C27 94.9167 27.1458 95.2708 27.4375 95.5625C27.7292 95.8542 28.0833 96 28.5 96ZM22 83C22.4167 83 22.7708 82.8542 23.0625 82.5625C23.3542 82.2708 23.5 81.9167 23.5 81.5C23.5 81.0833 23.3542 80.7292 23.0625 80.4375C22.7708 80.1458 22.4167 80 22 80C21.5833 80 21.2292 80.1458 20.9375 80.4375C20.6458 80.7292 20.5 81.0833 20.5 81.5C20.5 81.9167 20.6458 82.2708 20.9375 82.5625C21.2292 82.8542 21.5833 83 22 83ZM15.5 96C15.9167 96 16.2708 95.8542 16.5625 95.5625C16.8542 95.2708 17 94.9167 17 94.5C17 94.0833 16.8542 93.7292 16.5625 93.4375C16.2708 93.1458 15.9167 93 15.5 93C15.0833 93 14.7292 93.1458 14.4375 93.4375C14.1458 93.7292 14 94.0833 14 94.5C14 94.9167 14.1458 95.2708 14.4375 95.5625C14.7292 95.8542 15.0833 96 15.5 96Z" fill="#13171B" fill-opacity="0.1"/>
</g>
<mask id="mask2_784_5577" style="mask-type:alpha" maskUnits="userSpaceOnUse" x="63" y="40" width="24" height="24">
<rect x="63" y="40" width="24" height="24" fill="#D9D9D9"/>
</mask>
<g mask="url(#mask2_784_5577)">
<path d="M68.5 62C67.5333 62 66.7083 61.6583 66.025 60.975C65.3417 60.2917 65 59.4667 65 58.5C65 57.5333 65.3417 56.7083 66.025 56.025C66.7083 55.3417 67.5333 55 68.5 55C68.8 55 69.0917 55.0375 69.375 55.1125C69.6583 55.1875 69.925 55.2917 70.175 55.425L74 51.6V48.85C73.2667 48.6333 72.6667 48.2208 72.2 47.6125C71.7333 47.0042 71.5 46.3 71.5 45.5C71.5 44.5333 71.8417 43.7083 72.525 43.025C73.2083 42.3417 74.0333 42 75 42C75.9667 42 76.7917 42.3417 77.475 43.025C78.1583 43.7083 78.5 44.5333 78.5 45.5C78.5 46.3 78.2667 47.0042 77.8 47.6125C77.3333 48.2208 76.7333 48.6333 76 48.85V51.6L79.85 55.425C80.1 55.2917 80.3625 55.1875 80.6375 55.1125C80.9125 55.0375 81.2 55 81.5 55C82.4667 55 83.2917 55.3417 83.975 56.025C84.6583 56.7083 85 57.5333 85 58.5C85 59.4667 84.6583 60.2917 83.975 60.975C83.2917 61.6583 82.4667 62 81.5 62C80.5333 62 79.7083 61.6583 79.025 60.975C78.3417 60.2917 78 59.4667 78 58.5C78 58.2 78.0375 57.9083 78.1125 57.625C78.1875 57.3417 78.2917 57.075 78.425 56.825L75 53.4L71.575 56.825C71.7083 57.075 71.8125 57.3417 71.8875 57.625C71.9625 57.9083 72 58.2 72 58.5C72 59.4667 71.6583 60.2917 70.975 60.975C70.2917 61.6583 69.4667 62 68.5 62ZM81.5 60C81.9167 60 82.2708 59.8542 82.5625 59.5625C82.8542 59.2708 83 58.9167 83 58.5C83 58.0833 82.8542 57.7292 82.5625 57.4375C82.2708 57.1458 81.9167 57 81.5 57C81.0833 57 80.7292 57.1458 80.4375 57.4375C80.1458 57.7292 80 58.0833 80 58.5C80 58.9167 80.1458 59.2708 80.4375 59.5625C80.7292 59.8542 81.0833 60 81.5 60ZM75 47C75.4167 47 75.7708 46.8542 76.0625 46.5625C76.3542 46.2708 76.5 45.9167 76.5 45.5C76.5 45.0833 76.3542 44.7292 76.0625 44.4375C75.7708 44.1458 75.4167 44 75 44C74.5833 44 74.2292 44.1458 73.9375 44.4375C73.6458 44.7292 73.5 45.0833 73.5 45.5C73.5 45.9167 73.6458 46.2708 73.9375 46.5625C74.2292 46.8542 74.5833 47 75 47ZM68.5 60C68.9167 60 69.2708 59.8542 69.5625 59.5625C69.8542 59.2708 70 58.9167 70 58.5C70 58.0833 69.8542 57.7292 69.5625 57.4375C69.2708 57.1458 68.9167 57 68.5 57C68.0833 57 67.7292 57.1458 67.4375 57.4375C67.1458 57.7292 67 58.0833 67 58.5C67 58.9167 67.1458 59.2708 67.4375 59.5625C67.7292 59.8542 68.0833 60 68.5 60Z" fill="#13171B" fill-opacity="0.1"/>
</g>
<mask id="mask3_784_5577" style="mask-type:alpha" maskUnits="userSpaceOnUse" x="116" y="4" width="24" height="24">
<rect x="116" y="4" width="24" height="24" fill="#D9D9D9"/>
</mask>
<g mask="url(#mask3_784_5577)">
<path d="M121.5 26C120.533 26 119.708 25.6583 119.025 24.975C118.342 24.2917 118 23.4667 118 22.5C118 21.5333 118.342 20.7083 119.025 20.025C119.708 19.3417 120.533 19 121.5 19C121.8 19 122.092 19.0375 122.375 19.1125C122.658 19.1875 122.925 19.2917 123.175 19.425L127 15.6V12.85C126.267 12.6333 125.667 12.2208 125.2 11.6125C124.733 11.0042 124.5 10.3 124.5 9.5C124.5 8.53333 124.842 7.70833 125.525 7.025C126.208 6.34167 127.033 6 128 6C128.967 6 129.792 6.34167 130.475 7.025C131.158 7.70833 131.5 8.53333 131.5 9.5C131.5 10.3 131.267 11.0042 130.8 11.6125C130.333 12.2208 129.733 12.6333 129 12.85V15.6L132.85 19.425C133.1 19.2917 133.362 19.1875 133.637 19.1125C133.912 19.0375 134.2 19 134.5 19C135.467 19 136.292 19.3417 136.975 20.025C137.658 20.7083 138 21.5333 138 22.5C138 23.4667 137.658 24.2917 136.975 24.975C136.292 25.6583 135.467 26 134.5 26C133.533 26 132.708 25.6583 132.025 24.975C131.342 24.2917 131 23.4667 131 22.5C131 22.2 131.038 21.9083 131.113 21.625C131.188 21.3417 131.292 21.075 131.425 20.825L128 17.4L124.575 20.825C124.708 21.075 124.813 21.3417 124.888 21.625C124.963 21.9083 125 22.2 125 22.5C125 23.4667 124.658 24.2917 123.975 24.975C123.292 25.6583 122.467 26 121.5 26ZM134.5 24C134.917 24 135.271 23.8542 135.562 23.5625C135.854 23.2708 136 22.9167 136 22.5C136 22.0833 135.854 21.7292 135.562 21.4375C135.271 21.1458 134.917 21 134.5 21C134.083 21 133.729 21.1458 133.438 21.4375C133.146 21.7292 133 22.0833 133 22.5C133 22.9167 133.146 23.2708 133.438 23.5625C133.729 23.8542 134.083 24 134.5 24ZM128 11C128.417 11 128.771 10.8542 129.062 10.5625C129.354 10.2708 129.5 9.91667 129.5 9.5C129.5 9.08333 129.354 8.72917 129.062 8.4375C128.771 8.14583 128.417 8 128 8C127.583 8 127.229 8.14583 126.938 8.4375C126.646 8.72917 126.5 9.08333 126.5 9.5C126.5 9.91667 126.646 10.2708 126.938 10.5625C127.229 10.8542 127.583 11 128 11ZM121.5 24C121.917 24 122.271 23.8542 122.562 23.5625C122.854 23.2708 123 22.9167 123 22.5C123 22.0833 122.854 21.7292 122.562 21.4375C122.271 21.1458 121.917 21 121.5 21C121.083 21 120.729 21.1458 120.438 21.4375C120.146 21.7292 120 22.0833 120 22.5C120 22.9167 120.146 23.2708 120.438 23.5625C120.729 23.8542 121.083 24 121.5 24Z" fill="#13171B" fill-opacity="0.1"/>
</g>
<mask id="mask4_784_5577" style="mask-type:alpha" maskUnits="userSpaceOnUse" x="116" y="76" width="24" height="24">
<rect x="116" y="76" width="24" height="24" fill="#D9D9D9"/>
</mask>
<g mask="url(#mask4_784_5577)">
<path d="M121.5 98C120.533 98 119.708 97.6583 119.025 96.975C118.342 96.2917 118 95.4667 118 94.5C118 93.5333 118.342 92.7083 119.025 92.025C119.708 91.3417 120.533 91 121.5 91C121.8 91 122.092 91.0375 122.375 91.1125C122.658 91.1875 122.925 91.2917 123.175 91.425L127 87.6V84.85C126.267 84.6333 125.667 84.2208 125.2 83.6125C124.733 83.0042 124.5 82.3 124.5 81.5C124.5 80.5333 124.842 79.7083 125.525 79.025C126.208 78.3417 127.033 78 128 78C128.967 78 129.792 78.3417 130.475 79.025C131.158 79.7083 131.5 80.5333 131.5 81.5C131.5 82.3 131.267 83.0042 130.8 83.6125C130.333 84.2208 129.733 84.6333 129 84.85V87.6L132.85 91.425C133.1 91.2917 133.362 91.1875 133.637 91.1125C133.912 91.0375 134.2 91 134.5 91C135.467 91 136.292 91.3417 136.975 92.025C137.658 92.7083 138 93.5333 138 94.5C138 95.4667 137.658 96.2917 136.975 96.975C136.292 97.6583 135.467 98 134.5 98C133.533 98 132.708 97.6583 132.025 96.975C131.342 96.2917 131 95.4667 131 94.5C131 94.2 131.038 93.9083 131.113 93.625C131.188 93.3417 131.292 93.075 131.425 92.825L128 89.4L124.575 92.825C124.708 93.075 124.813 93.3417 124.888 93.625C124.963 93.9083 125 94.2 125 94.5C125 95.4667 124.658 96.2917 123.975 96.975C123.292 97.6583 122.467 98 121.5 98ZM134.5 96C134.917 96 135.271 95.8542 135.562 95.5625C135.854 95.2708 136 94.9167 136 94.5C136 94.0833 135.854 93.7292 135.562 93.4375C135.271 93.1458 134.917 93 134.5 93C134.083 93 133.729 93.1458 133.438 93.4375C133.146 93.7292 133 94.0833 133 94.5C133 94.9167 133.146 95.2708 133.438 95.5625C133.729 95.8542 134.083 96 134.5 96ZM128 83C128.417 83 128.771 82.8542 129.062 82.5625C129.354 82.2708 129.5 81.9167 129.5 81.5C129.5 81.0833 129.354 80.7292 129.062 80.4375C128.771 80.1458 128.417 80 128 80C127.583 80 127.229 80.1458 126.938 80.4375C126.646 80.7292 126.5 81.0833 126.5 81.5C126.5 81.9167 126.646 82.2708 126.938 82.5625C127.229 82.8542 127.583 83 128 83ZM121.5 96C121.917 96 122.271 95.8542 122.562 95.5625C122.854 95.2708 123 94.9167 123 94.5C123 94.0833 122.854 93.7292 122.562 93.4375C122.271 93.1458 121.917 93 121.5 93C121.083 93 120.729 93.1458 120.438 93.4375C120.146 93.7292 120 94.0833 120 94.5C120 94.9167 120.146 95.2708 120.438 95.5625C120.729 95.8542 121.083 96 121.5 96Z" fill="#13171B" fill-opacity="0.1"/>
</g>
<mask id="mask5_784_5577" style="mask-type:alpha" maskUnits="userSpaceOnUse" x="169" y="40" width="24" height="24">
<rect x="169" y="40" width="24" height="24" fill="#D9D9D9"/>
</mask>
<g mask="url(#mask5_784_5577)">
<path d="M174.5 62C173.533 62 172.708 61.6583 172.025 60.975C171.342 60.2917 171 59.4667 171 58.5C171 57.5333 171.342 56.7083 172.025 56.025C172.708 55.3417 173.533 55 174.5 55C174.8 55 175.092 55.0375 175.375 55.1125C175.658 55.1875 175.925 55.2917 176.175 55.425L180 51.6V48.85C179.267 48.6333 178.667 48.2208 178.2 47.6125C177.733 47.0042 177.5 46.3 177.5 45.5C177.5 44.5333 177.842 43.7083 178.525 43.025C179.208 42.3417 180.033 42 181 42C181.967 42 182.792 42.3417 183.475 43.025C184.158 43.7083 184.5 44.5333 184.5 45.5C184.5 46.3 184.267 47.0042 183.8 47.6125C183.333 48.2208 182.733 48.6333 182 48.85V51.6L185.85 55.425C186.1 55.2917 186.362 55.1875 186.637 55.1125C186.912 55.0375 187.2 55 187.5 55C188.467 55 189.292 55.3417 189.975 56.025C190.658 56.7083 191 57.5333 191 58.5C191 59.4667 190.658 60.2917 189.975 60.975C189.292 61.6583 188.467 62 187.5 62C186.533 62 185.708 61.6583 185.025 60.975C184.342 60.2917 184 59.4667 184 58.5C184 58.2 184.038 57.9083 184.113 57.625C184.188 57.3417 184.292 57.075 184.425 56.825L181 53.4L177.575 56.825C177.708 57.075 177.813 57.3417 177.888 57.625C177.963 57.9083 178 58.2 178 58.5C178 59.4667 177.658 60.2917 176.975 60.975C176.292 61.6583 175.467 62 174.5 62ZM187.5 60C187.917 60 188.271 59.8542 188.562 59.5625C188.854 59.2708 189 58.9167 189 58.5C189 58.0833 188.854 57.7292 188.562 57.4375C188.271 57.1458 187.917 57 187.5 57C187.083 57 186.729 57.1458 186.438 57.4375C186.146 57.7292 186 58.0833 186 58.5C186 58.9167 186.146 59.2708 186.438 59.5625C186.729 59.8542 187.083 60 187.5 60ZM181 47C181.417 47 181.771 46.8542 182.062 46.5625C182.354 46.2708 182.5 45.9167 182.5 45.5C182.5 45.0833 182.354 44.7292 182.062 44.4375C181.771 44.1458 181.417 44 181 44C180.583 44 180.229 44.1458 179.938 44.4375C179.646 44.7292 179.5 45.0833 179.5 45.5C179.5 45.9167 179.646 46.2708 179.938 46.5625C180.229 46.8542 180.583 47 181 47ZM174.5 60C174.917 60 175.271 59.8542 175.562 59.5625C175.854 59.2708 176 58.9167 176 58.5C176 58.0833 175.854 57.7292 175.562 57.4375C175.271 57.1458 174.917 57 174.5 57C174.083 57 173.729 57.1458 173.438 57.4375C173.146 57.7292 173 58.0833 173 58.5C173 58.9167 173.146 59.2708 173.438 59.5625C173.729 59.8542 174.083 60 174.5 60Z" fill="#13171B" fill-opacity="0.1"/>
</g>
<mask id="mask6_784_5577" style="mask-type:alpha" maskUnits="userSpaceOnUse" x="222" y="4" width="24" height="24">
<rect x="222" y="4" width="24" height="24" fill="#D9D9D9"/>
</mask>
<g mask="url(#mask6_784_5577)">
<path d="M227.5 26C226.533 26 225.708 25.6583 225.025 24.975C224.342 24.2917 224 23.4667 224 22.5C224 21.5333 224.342 20.7083 225.025 20.025C225.708 19.3417 226.533 19 227.5 19C227.8 19 228.092 19.0375 228.375 19.1125C228.658 19.1875 228.925 19.2917 229.175 19.425L233 15.6V12.85C232.267 12.6333 231.667 12.2208 231.2 11.6125C230.733 11.0042 230.5 10.3 230.5 9.5C230.5 8.53333 230.842 7.70833 231.525 7.025C232.208 6.34167 233.033 6 234 6C234.967 6 235.792 6.34167 236.475 7.025C237.158 7.70833 237.5 8.53333 237.5 9.5C237.5 10.3 237.267 11.0042 236.8 11.6125C236.333 12.2208 235.733 12.6333 235 12.85V15.6L238.85 19.425C239.1 19.2917 239.362 19.1875 239.637 19.1125C239.912 19.0375 240.2 19 240.5 19C241.467 19 242.292 19.3417 242.975 20.025C243.658 20.7083 244 21.5333 244 22.5C244 23.4667 243.658 24.2917 242.975 24.975C242.292 25.6583 241.467 26 240.5 26C239.533 26 238.708 25.6583 238.025 24.975C237.342 24.2917 237 23.4667 237 22.5C237 22.2 237.038 21.9083 237.113 21.625C237.188 21.3417 237.292 21.075 237.425 20.825L234 17.4L230.575 20.825C230.708 21.075 230.813 21.3417 230.888 21.625C230.963 21.9083 231 22.2 231 22.5C231 23.4667 230.658 24.2917 229.975 24.975C229.292 25.6583 228.467 26 227.5 26ZM240.5 24C240.917 24 241.271 23.8542 241.562 23.5625C241.854 23.2708 242 22.9167 242 22.5C242 22.0833 241.854 21.7292 241.562 21.4375C241.271 21.1458 240.917 21 240.5 21C240.083 21 239.729 21.1458 239.438 21.4375C239.146 21.7292 239 22.0833 239 22.5C239 22.9167 239.146 23.2708 239.438 23.5625C239.729 23.8542 240.083 24 240.5 24ZM234 11C234.417 11 234.771 10.8542 235.062 10.5625C235.354 10.2708 235.5 9.91667 235.5 9.5C235.5 9.08333 235.354 8.72917 235.062 8.4375C234.771 8.14583 234.417 8 234 8C233.583 8 233.229 8.14583 232.938 8.4375C232.646 8.72917 232.5 9.08333 232.5 9.5C232.5 9.91667 232.646 10.2708 232.938 10.5625C233.229 10.8542 233.583 11 234 11ZM227.5 24C227.917 24 228.271 23.8542 228.562 23.5625C228.854 23.2708 229 22.9167 229 22.5C229 22.0833 228.854 21.7292 228.562 21.4375C228.271 21.1458 227.917 21 227.5 21C227.083 21 226.729 21.1458 226.438 21.4375C226.146 21.7292 226 22.0833 226 22.5C226 22.9167 226.146 23.2708 226.438 23.5625C226.729 23.8542 227.083 24 227.5 24Z" fill="#13171B" fill-opacity="0.1"/>
</g>
<mask id="mask7_784_5577" style="mask-type:alpha" maskUnits="userSpaceOnUse" x="222" y="76" width="24" height="24">
<rect x="222" y="76" width="24" height="24" fill="#D9D9D9"/>
</mask>
<g mask="url(#mask7_784_5577)">
<path d="M227.5 98C226.533 98 225.708 97.6583 225.025 96.975C224.342 96.2917 224 95.4667 224 94.5C224 93.5333 224.342 92.7083 225.025 92.025C225.708 91.3417 226.533 91 227.5 91C227.8 91 228.092 91.0375 228.375 91.1125C228.658 91.1875 228.925 91.2917 229.175 91.425L233 87.6V84.85C232.267 84.6333 231.667 84.2208 231.2 83.6125C230.733 83.0042 230.5 82.3 230.5 81.5C230.5 80.5333 230.842 79.7083 231.525 79.025C232.208 78.3417 233.033 78 234 78C234.967 78 235.792 78.3417 236.475 79.025C237.158 79.7083 237.5 80.5333 237.5 81.5C237.5 82.3 237.267 83.0042 236.8 83.6125C236.333 84.2208 235.733 84.6333 235 84.85V87.6L238.85 91.425C239.1 91.2917 239.362 91.1875 239.637 91.1125C239.912 91.0375 240.2 91 240.5 91C241.467 91 242.292 91.3417 242.975 92.025C243.658 92.7083 244 93.5333 244 94.5C244 95.4667 243.658 96.2917 242.975 96.975C242.292 97.6583 241.467 98 240.5 98C239.533 98 238.708 97.6583 238.025 96.975C237.342 96.2917 237 95.4667 237 94.5C237 94.2 237.038 93.9083 237.113 93.625C237.188 93.3417 237.292 93.075 237.425 92.825L234 89.4L230.575 92.825C230.708 93.075 230.813 93.3417 230.888 93.625C230.963 93.9083 231 94.2 231 94.5C231 95.4667 230.658 96.2917 229.975 96.975C229.292 97.6583 228.467 98 227.5 98ZM240.5 96C240.917 96 241.271 95.8542 241.562 95.5625C241.854 95.2708 242 94.9167 242 94.5C242 94.0833 241.854 93.7292 241.562 93.4375C241.271 93.1458 240.917 93 240.5 93C240.083 93 239.729 93.1458 239.438 93.4375C239.146 93.7292 239 94.0833 239 94.5C239 94.9167 239.146 95.2708 239.438 95.5625C239.729 95.8542 240.083 96 240.5 96ZM234 83C234.417 83 234.771 82.8542 235.062 82.5625C235.354 82.2708 235.5 81.9167 235.5 81.5C235.5 81.0833 235.354 80.7292 235.062 80.4375C234.771 80.1458 234.417 80 234 80C233.583 80 233.229 80.1458 232.938 80.4375C232.646 80.7292 232.5 81.0833 232.5 81.5C232.5 81.9167 232.646 82.2708 232.938 82.5625C233.229 82.8542 233.583 83 234 83ZM227.5 96C227.917 96 228.271 95.8542 228.562 95.5625C228.854 95.2708 229 94.9167 229 94.5C229 94.0833 228.854 93.7292 228.562 93.4375C228.271 93.1458 227.917 93 227.5 93C227.083 93 226.729 93.1458 226.438 93.4375C226.146 93.7292 226 94.0833 226 94.5C226 94.9167 226.146 95.2708 226.438 95.5625C226.729 95.8542 227.083 96 227.5 96Z" fill="#13171B" fill-opacity="0.1"/>
</g>
<mask id="mask8_784_5577" style="mask-type:alpha" maskUnits="userSpaceOnUse" x="275" y="40" width="24" height="24">
<rect x="275" y="40" width="24" height="24" fill="#D9D9D9"/>
</mask>
<g mask="url(#mask8_784_5577)">
<path d="M280.5 62C279.533 62 278.708 61.6583 278.025 60.975C277.342 60.2917 277 59.4667 277 58.5C277 57.5333 277.342 56.7083 278.025 56.025C278.708 55.3417 279.533 55 280.5 55C280.8 55 281.092 55.0375 281.375 55.1125C281.658 55.1875 281.925 55.2917 282.175 55.425L286 51.6V48.85C285.267 48.6333 284.667 48.2208 284.2 47.6125C283.733 47.0042 283.5 46.3 283.5 45.5C283.5 44.5333 283.842 43.7083 284.525 43.025C285.208 42.3417 286.033 42 287 42C287.967 42 288.792 42.3417 289.475 43.025C290.158 43.7083 290.5 44.5333 290.5 45.5C290.5 46.3 290.267 47.0042 289.8 47.6125C289.333 48.2208 288.733 48.6333 288 48.85V51.6L291.85 55.425C292.1 55.2917 292.362 55.1875 292.637 55.1125C292.912 55.0375 293.2 55 293.5 55C294.467 55 295.292 55.3417 295.975 56.025C296.658 56.7083 297 57.5333 297 58.5C297 59.4667 296.658 60.2917 295.975 60.975C295.292 61.6583 294.467 62 293.5 62C292.533 62 291.708 61.6583 291.025 60.975C290.342 60.2917 290 59.4667 290 58.5C290 58.2 290.038 57.9083 290.113 57.625C290.188 57.3417 290.292 57.075 290.425 56.825L287 53.4L283.575 56.825C283.708 57.075 283.813 57.3417 283.888 57.625C283.963 57.9083 284 58.2 284 58.5C284 59.4667 283.658 60.2917 282.975 60.975C282.292 61.6583 281.467 62 280.5 62ZM293.5 60C293.917 60 294.271 59.8542 294.562 59.5625C294.854 59.2708 295 58.9167 295 58.5C295 58.0833 294.854 57.7292 294.562 57.4375C294.271 57.1458 293.917 57 293.5 57C293.083 57 292.729 57.1458 292.438 57.4375C292.146 57.7292 292 58.0833 292 58.5C292 58.9167 292.146 59.2708 292.438 59.5625C292.729 59.8542 293.083 60 293.5 60ZM287 47C287.417 47 287.771 46.8542 288.062 46.5625C288.354 46.2708 288.5 45.9167 288.5 45.5C288.5 45.0833 288.354 44.7292 288.062 44.4375C287.771 44.1458 287.417 44 287 44C286.583 44 286.229 44.1458 285.938 44.4375C285.646 44.7292 285.5 45.0833 285.5 45.5C285.5 45.9167 285.646 46.2708 285.938 46.5625C286.229 46.8542 286.583 47 287 47ZM280.5 60C280.917 60 281.271 59.8542 281.562 59.5625C281.854 59.2708 282 58.9167 282 58.5C282 58.0833 281.854 57.7292 281.562 57.4375C281.271 57.1458 280.917 57 280.5 57C280.083 57 279.729 57.1458 279.438 57.4375C279.146 57.7292 279 58.0833 279 58.5C279 58.9167 279.146 59.2708 279.438 59.5625C279.729 59.8542 280.083 60 280.5 60Z" fill="#13171B" fill-opacity="0.1"/>
</g>
</g>
<defs>
<clipPath id="clip0_784_5577">
<rect width="296" height="80" fill="white"/>
</clipPath>
</defs>
</svg>
